HIERARCHY
ROOT Hips
{
	OFFSET 0.00 0.00 0.00
	CHANNELS 6 Xposition Yposition Zposition Xrotation Yrotation Zrotation
	JOINT Spine
	{
		OFFSET 0.00000 1.70439 2.55658
		CHANNELS 3 Xrotation Yrotation Zrotation
		JOINT Spine1
		{
			OFFSET 0.00000 0.59193 3.35699
			CHANNELS 3 Xrotation Yrotation Zrotation
			JOINT Spine2
			{
				OFFSET 0.00000 0.29710 3.39581
				CHANNELS 3 Xrotation Yrotation Zrotation
				JOINT Spine3
				{
					OFFSET 0.00000 0.00000 3.40878
					CHANNELS 3 Xrotation Yrotation Zrotation
					JOINT Neck
					{
						OFFSET 0.00000 -1.27828 8.94804
						CHANNELS 3 Xrotation Yrotation Zrotation
						JOINT Head
						{
							OFFSET 0.00000 -0.81390 4.61586
							CHANNELS 3 Xrotation Yrotation Zrotation
							End Site
							{
								OFFSET 0.00000 0.00001 5.51796
							}
						}
					}
					JOINT RightShoulder
					{
						OFFSET -1.18875 -1.98124 6.41925
						CHANNELS 3 Xrotation Yrotation Zrotation
						JOINT RightArm
						{
							OFFSET -5.90412 0.00000 0.00000
							CHANNELS 3 Xrotation Yrotation Zrotation
							JOINT RightForeArm
							{
								OFFSET -11.94674 0.00000 0.00000
								CHANNELS 3 Xrotation Yrotation Zrotation
								JOINT RightHand
								{
									OFFSET -10.17720 0.00000 0.00000
									CHANNELS 3 Xrotation Yrotation Zrotation
									JOINT RightHandEnd
									{
										OFFSET -2.84518 0.00000 0.00000
										CHANNELS 3 Xrotation Yrotation Zrotation
										End Site
										{
											OFFSET -2.84518 0.00000 0.00000
										}
									}
									JOINT RightHandThumb1
									{
										OFFSET -1.13807 -1.89679 -0.75871
										CHANNELS 3 Yrotation Xrotation Zrotation
										End Site
										{
											OFFSET -2.74823 -0.73639 0.00000
										}
									}
								}
							}
						}
					}
					JOINT LeftShoulder
					{
						OFFSET 1.18875 -1.98124 6.41925
						CHANNELS 3 Xrotation Yrotation Zrotation
						JOINT LeftArm
						{
							OFFSET 5.90412 0.00000 0.00000
							CHANNELS 3 Xrotation Yrotation Zrotation
							JOINT LeftForeArm
							{
								OFFSET 11.94674 0.00000 0.00000
								CHANNELS 3 Xrotation Yrotation Zrotation
								JOINT LeftHand
								{
									OFFSET 10.17720 0.00000 0.00000
									CHANNELS 3 Xrotation Yrotation Zrotation
									JOINT LeftHandEnd
									{
										OFFSET 2.84518 0.00000 0.00000
										CHANNELS 3 Xrotation Yrotation Zrotation
										End Site
										{
											OFFSET 2.84518 0.00000 0.00000
										}
									}
									JOINT LeftHandThumb1
									{
										OFFSET 1.13807 -1.89679 -0.75871
										CHANNELS 3 Yrotation Xrotation Zrotation
										End Site
										{
											OFFSET 2.74823 -0.73639 0.00000
										}
									}
								}
							}
						}
					}
				}
			}
		}
	}
	JOINT RightUpLeg
	{
		OFFSET -3.52662 0.00000 -1.03025
		CHANNELS 3 Xrotation Yrotation Zrotation
		JOINT RightLeg
		{
			OFFSET 0.00001 0.00000 -17.80159
			CHANNELS 3 Xrotation Yrotation Zrotation
			JOINT RightFoot
			{
				OFFSET 0.00001 0.00000 -16.85992
				CHANNELS 3 Xrotation Yrotation Zrotation
				JOINT RightToeBase
				{
					OFFSET 0.00000 -5.42953 -1.97619
					CHANNELS 3 Xrotation Yrotation Zrotation
					End Site
					{
						OFFSET 0.00000 -2.85300 -0.00000
					}
				}
			}
		}
	}
	JOINT LeftUpLeg
	{
		OFFSET 3.52662 0.00000 -1.03025
		CHANNELS 3 Xrotation Yrotation Zrotation
		JOINT LeftLeg
		{
			OFFSET 0.00001 0.00000 -17.80159
			CHANNELS 3 Xrotation Yrotation Zrotation
			JOINT LeftFoot
			{
				OFFSET 0.00001 0.00000 -16.85992
				CHANNELS 3 Xrotation Yrotation Zrotation
				JOINT LeftToeBase
				{
					OFFSET 0.00000 -5.42953 -1.97619
					CHANNELS 3 Xrotation Yrotation Zrotation
					End Site
					{
						OFFSET 0.00000 -2.85300 -0.00000
					}
				}
			}
		}
	}
}
MOTION
Frames: 10
Frame Time: 0.008342
 -2.8384 -98.6753 37.5376 1.8574 1.8313 -175.0373 1.9907 0.0044 -0.7063 1.1028 0.2080 -0.0789 -1.4596 -1.4731 -0.8588 -1.0007 -0.1194 0.3281 0.2177 0.1822 -1.4277 -2.8746 1.8202 -0.3390 0.1423 11.3832 -1.5948 -3.5546 -2.2735 -7.3057 0.0000 0.0000 9.5749 -0.3093 17.4567 -4.6122 0.0000 -0.0000 0.0000 -0.0000 -0.0000 0.0000 -4.0732 -10.0363 -2.5294 0.7614 9.1379 7.1114 -0.0000 -0.0000 -12.5444 -3.8975 -14.2036 6.4707 -0.0000 -0.0000 0.0000 0.0000 -0.0000 0.0000 2.4162 7.6439 -44.8433 12.1731 0.0000 0.0000 -11.4903 -6.3469 3.9023 2.0454 0.0000 0.0000 0.5798 0.5517 10.1209 11.1810 0.0000 0.0000 -9.8655 5.0942 1.4220 -1.6673 0.0000 -0.0000
 -2.8401 -98.6655 37.5376 1.8598 1.8234 -175.0821 1.9814 -0.0095 -0.7049 1.0966 0.2023 -0.0761 -1.4641 -1.4731 -0.8438 -0.9997 -0.1219 0.3284 0.2287 0.2051 -1.4087 -2.8700 1.8143 -0.3477 0.1672 11.4019 -1.5927 -3.5213 -2.3102 -7.2806 0.0000 0.0000 9.5692 -0.2793 17.4835 -4.6298 -0.0000 0.0000 -0.0000 -0.0000 -0.0000 0.0000 -4.0858 -10.0112 -2.5076 0.7847 9.1571 7.0975 -0.0000 -0.0000 -12.5400 -3.8614 -14.2503 6.4706 -0.0000 -0.0000 0.0000 0.0000 -0.0000 0.0000 2.4312 7.6320 -44.8208 12.1509 0.0000 0.0000 -11.4813 -6.3426 3.9114 2.0501 0.0000 0.0000 0.6015 0.5498 10.1312 11.1790 0.0000 0.0000 -9.8813 5.0771 1.4519 -1.6795 0.0000 -0.0000
 -2.8420 -98.6525 37.5376 1.8658 1.8118 -175.1391 1.9679 -0.0294 -0.7007 1.0957 0.1953 -0.0786 -1.4723 -1.4714 -0.8205 -0.9976 -0.1270 0.3281 0.2409 0.2345 -1.3834 -2.8629 1.8079 -0.3580 0.2038 11.4245 -1.5926 -3.4737 -2.3558 -7.2450 0.0000 0.0000 9.5632 -0.2409 17.5164 -4.6578 0.0000 0.0000 0.0000 -0.0000 -0.0000 -0.0000 -4.1015 -9.9781 -2.4791 0.8140 9.1826 7.0783 -0.0000 -0.0000 -12.5359 -3.8117 -14.3141 6.4737 -0.0000 -0.0000 0.0000 0.0000 -0.0000 -0.0000 2.4546 7.6147 -44.7928 12.1213 0.0000 0.0000 -11.4669 -6.3455 3.9245 2.0494 0.0000 0.0000 0.6332 0.5450 10.1498 11.1761 0.0000 0.0000 -9.9023 5.0537 1.4857 -1.6970 0.0000 -0.0000
 -2.8442 -98.6368 37.5375 1.8710 1.7982 -175.2052 1.9519 -0.0521 -0.6982 1.0880 0.1872 -0.0782 -1.4763 -1.4715 -0.7963 -0.9953 -0.1325 0.3274 0.2540 0.2694 -1.3522 -2.8548 1.8019 -0.3690 0.2500 11.4493 -1.5918 -3.4100 -2.4082 -7.2010 0.0000 0.0000 9.5584 -0.1957 17.5530 -4.6961 -0.0000 0.0000 0.0000 -0.0000 -0.0000 -0.0000 -4.1203 -9.9357 -2.4427 0.8492 9.2127 7.0530 -0.0000 -0.0000 -12.5314 -3.7523 -14.3959 6.4787 -0.0000 0.0000 0.0000 -0.0000 -0.0000 0.0000 2.4809 7.5953 -44.7610 12.0884 0.0000 0.0000 -11.4490 -6.3571 3.9408 2.0440 0.0000 0.0000 0.6685 0.5396 10.1714 11.1744 0.0000 0.0000 -9.9285 5.0239 1.5262 -1.7202 0.0000 -0.0000
 -2.8465 -98.6182 37.5373 1.8814 1.7830 -175.2791 1.9361 -0.0787 -0.6956 1.0804 0.1789 -0.0778 -1.4792 -1.4717 -0.7701 -0.9925 -0.1390 0.3267 0.2678 0.3088 -1.3170 -2.8453 1.7967 -0.3794 0.3064 11.4754 -1.5923 -3.3320 -2.4657 -7.1482 0.0000 0.0000 9.5553 -0.1457 17.5897 -4.7448 0.0000 0.0000 0.0000 0.0000 -0.0000 0.0000 -4.1414 -9.8865 -2.4011 0.8887 9.2481 7.0231 -0.0000 -0.0000 -12.5274 -3.6886 -14.4927 6.4853 -0.0000 0.0000 -0.0000 -0.0000 -0.0000 0.0000 2.5172 7.5736 -44.7295 12.0513 0.0000 0.0000 -11.4268 -6.3798 3.9635 2.0322 0.0000 0.0000 0.7152 0.5329 10.1993 11.1713 0.0000 0.0000 -9.9588 4.9895 1.5687 -1.7474 0.0000 -0.0000
 -2.8489 -98.5974 37.5371 1.8948 1.7664 -175.3576 1.9192 -0.1078 -0.6932 1.0729 0.1702 -0.0783 -1.4808 -1.4726 -0.7433 -0.9887 -0.1460 0.3258 0.2813 0.3514 -1.2786 -2.8345 1.7930 -0.3880 0.3702 11.5014 -1.5920 -3.2405 -2.5257 -7.0887 0.0000 0.0000 9.5550 -0.0948 17.6252 -4.8015 0.0000 -0.0000 -0.0000 -0.0000 -0.0000 0.0000 -4.1634 -9.8309 -2.3543 0.9297 9.2869 6.9895 -0.0000 -0.0000 -12.5247 -3.6160 -14.5993 6.4962 -0.0000 0.0000 0.0000 0.0000 0.0000 0.0000 2.5606 7.5504 -44.6992 12.0120 0.0000 0.0000 -11.4010 -6.4140 3.9911 2.0145 0.0000 0.0000 0.7690 0.5249 10.2312 11.1683 0.0000 0.0000 -9.9926 4.9520 1.6130 -1.7779 0.0000 -0.0000
 -2.8511 -98.5744 37.5369 1.9188 1.7492 -175.4378 1.9111 -0.1392 -0.6915 1.0625 0.1615 -0.0767 -1.4795 -1.4736 -0.7209 -0.9844 -0.1535 0.3263 0.2951 0.3959 -1.2396 -2.8227 1.7899 -0.3934 0.4396 11.5266 -1.5908 -3.1369 -2.5857 -7.0254 0.0000 0.0000 9.5589 -0.0452 17.6535 -4.8644 0.0000 0.0000 -0.0000 0.0000 -0.0000 -0.0000 -4.1847 -9.7716 -2.3051 0.9700 9.3290 6.9533 -0.0000 -0.0000 -12.5218 -3.5441 -14.7116 6.5088 0.0000 -0.0000 0.0000 -0.0000 -0.0000 0.0000 2.6196 7.5254 -44.6747 11.9699 0.0000 0.0000 -11.3713 -6.4604 4.0251 1.9922 0.0000 0.0000 0.8387 0.5153 10.2678 11.1632 0.0000 0.0000 -10.0285 4.9139 1.6550 -1.8095 0.0000 -0.0000
 -2.8532 -98.5510 37.5366 1.9297 1.7327 -175.5166 1.8846 -0.1709 -0.6895 1.0560 0.1544 -0.0787 -1.4764 -1.4756 -0.6955 -0.9788 -0.1599 0.3245 0.3076 0.4410 -1.2013 -2.8128 1.7888 -0.3950 0.5087 11.5452 -1.5882 -3.0238 -2.6384 -6.9602 0.0000 0.0000 9.5682 -0.0007 17.6734 -4.9315 0.0000 0.0000 0.0000 0.0000 -0.0000 -0.0000 -4.2056 -9.7070 -2.2549 1.0091 9.3704 6.9158 -0.0000 -0.0000 -12.5198 -3.4734 -14.8255 6.5226 0.0000 0.0000 -0.0000 0.0000 -0.0000 0.0000 2.6634 7.5052 -44.6492 11.9357 0.0000 0.0000 -11.3436 -6.5151 4.0579 1.9655 0.0000 0.0000 0.8938 0.5075 10.3009 11.1619 0.0000 0.0000 -10.0661 4.8760 1.7011 -1.8399 0.0000 -0.0000
 -2.8549 -98.5265 37.5363 1.9549 1.7155 -175.5909 1.8730 -0.2050 -0.6892 1.0454 0.1475 -0.0778 -1.4692 -1.4767 -0.6779 -0.9728 -0.1657 0.3246 0.3204 0.4845 -1.1661 -2.8025 1.7882 -0.3914 0.5772 11.5599 -1.5829 -2.9045 -2.6855 -6.8962 0.0000 0.0000 9.5826 0.0363 17.6800 -5.0012 0.0000 -0.0000 0.0000 -0.0000 -0.0000 0.0000 -4.2225 -9.6444 -2.2066 1.0422 9.4141 6.8792 -0.0000 -0.0000 -12.5185 -3.4092 -14.9331 6.5365 0.0000 -0.0000 -0.0000 -0.0000 0.0000 0.0000 2.7264 7.4822 -44.6348 11.8992 0.0000 0.0000 -11.3125 -6.5796 4.0970 1.9358 0.0000 0.0000 0.9664 0.4963 10.3374 11.1587 0.0000 0.0000 -10.1042 4.8423 1.7395 -1.8666 0.0000 -0.0000
 -2.8563 -98.5022 37.5359 1.9767 1.7005 -175.6590 1.8565 -0.2375 -0.6889 1.0360 0.1416 -0.0781 -1.4596 -1.4780 -0.6626 -0.9659 -0.1700 0.3238 0.3329 0.5265 -1.1346 -2.7936 1.7882 -0.3824 0.6399 11.5685 -1.5743 -2.7821 -2.7229 -6.8354 0.0000 0.0000 9.6023 0.0679 17.6742 -5.0708 -0.0000 -0.0000 -0.0000 0.0000 -0.0000 -0.0000 -4.2357 -9.5814 -2.1608 1.0690 9.4557 6.8441 -0.0000 -0.0000 -12.5177 -3.3536 -15.0303 6.5495 0.0000 -0.0000 0.0000 -0.0000 -0.0000 0.0000 2.7847 7.4640 -44.6246 11.8701 0.0000 0.0000 -11.2842 -6.6491 4.1348 1.9067 0.0000 0.0000 1.0348 0.4867 10.3707 11.1560 0.0000 0.0000 -10.1408 4.8135 1.7761 -1.8900 0.0000 -0.0000
